<?xml version="1.0" standalone="no"?>
<!DOCTYPE svg PUBLIC "-//W3C//DTD SVG 20010904//EN"
 "http://www.w3.org/TR/2001/REC-SVG-20010904/DTD/svg10.dtd">
<svg version="1.0" xmlns="http://www.w3.org/2000/svg"
 width="1280.000000pt" height="640.000000pt" viewBox="0 0 1280.000000 640.000000"
 preserveAspectRatio="xMidYMid meet">
<g transform="translate(0.000000,640.000000) scale(0.100000,-0.100000)"
fill="#000000" stroke="none">
<path d="M7914 4760 c-196 -51 -360 -188 -449 -374 -105 -221 -95 -498 27
-704 49 -82 165 -201 245 -248 104 -62 196 -190 262 -364 38 -99 24 -121 -24
-37 -48 83 -168 196 -261 244 -107 56 -188 76 -304 77 -185 0 -324 -59 -461
-194 -141 -139 -206 -283 -216 -480 -23 -419 282 -761 676 -760 232 1 420 107
559 315 52 78 65 71 36 -18 -87 -266 -301 -482 -556 -562 -31 -10 -55 -22 -52
-27 7 -11 1371 -11 1378 0 3 5 -21 17 -52 27 -238 74 -438 263 -543 515 -17
39 -29 81 -27 92 2 18 10 10 41 -36 123 -185 310 -294 523 -304 270 -12 499
122 629 368 59 113 80 206 79 355 0 120 -3 137 -33 224 -39 115 -85 193 -163
276 -247 265 -648 282 -919 38 -23 -21 -67 -72 -98 -112 -80 -109 -80 -60 -1
99 51 101 114 184 190 250 143 124 214 204 257 286 102 195 117 414 42 617
-38 106 -95 191 -182 274 -165 156 -394 218 -603 163z"/>
<path d="M10614 4760 c-229 -60 -405 -240 -490 -500 -25 -77 -28 -99 -28 -235
-1 -144 1 -154 32 -244 80 -229 197 -397 568 -816 380 -429 522 -620 630 -850
44 -94 89 -229 100 -302 8 -53 20 -48 29 13 19 128 118 351 229 517 79 118
216 289 363 453 59 67 156 175 214 240 348 393 474 602 518 865 19 116 14 193
-23 336 -51 201 -191 382 -365 471 -107 55 -159 67 -286 67 -89 0 -124 -5
-183 -24 -208 -68 -373 -246 -451 -486 -14 -44 -30 -78 -36 -77 -5 1 -16 26
-23 54 -20 78 -82 204 -137 276 -157 208 -422 305 -661 242z"/>
<path d="M4615 4618 c-141 -214 -304 -446 -415 -590 -104 -136 -394 -432 -658
-673 -89 -81 -161 -151 -160 -155 2 -4 81 -78 176 -164 269 -245 526 -507 632
-644 109 -142 223 -303 399 -562 68 -102 128 -185 132 -185 5 0 70 92 146 205
166 246 297 429 405 567 94 120 352 382 603 611 99 90 180 169 180 176 0 6
-47 54 -105 106 -209 190 -466 437 -554 536 -143 158 -352 441 -576 779 -50
77 -95 141 -99 142 -3 2 -51 -66 -106 -149z"/>
<path d="M1347 4588 c-36 -153 -120 -319 -244 -485 -98 -132 -205 -250 -488
-543 -433 -447 -545 -607 -594 -855 -16 -85 -16 -95 0 -186 29 -162 89 -285
192 -391 167 -171 405 -241 635 -187 26 6 89 31 140 56 76 36 107 58 170 122
42 42 91 100 107 129 56 97 59 53 5 -87 -90 -232 -284 -419 -520 -501 -63 -22
-75 -29 -57 -34 35 -9 1340 -7 1355 3 10 6 6 10 -15 15 -105 27 -249 105 -344
187 -103 89 -210 253 -254 386 -28 87 -15 95 33 21 79 -121 204 -223 333 -272
343 -129 723 45 862 394 80 201 58 430 -60 635 -95 165 -202 291 -561 658
-266 271 -341 355 -431 476 -116 157 -183 290 -224 447 l-23 85 -17 -73z"/>
</g>
</svg>
